<?xml version="1.0" encoding="utf-8"?>
<!-- Generator: Adobe Illustrator 26.5.0, SVG Export Plug-In . SVG Version: 6.00 Build 0)  -->
<svg version="1.1" id="Layer_1" xmlns="http://www.w3.org/2000/svg" xmlns:xlink="http://www.w3.org/1999/xlink" x="0px" y="0px"
	 viewBox="0 0 1142.1 265.3" style="enable-background:new 0 0 1142.1 265.3;" xml:space="preserve">
<style type="text/css">
	.st0{fill:#002856;}
	.st1{fill:#0033A1;}
	.st2{fill:#1D1E1C;}
	.st3{fill:#1E3D8E;}
	.st4{fill:#1D2D51;}
	.st5{fill:none;stroke:#0033A1;stroke-width:4.7354;}
</style>
<g>
	<g>
		<path class="st1" d="M135.8,88.5c-5.1-8.6-8-18.7-8-29.5c0-32,25.9-57.9,57.9-57.9S243.6,27,243.6,59c0,10.8-2.9,20.8-8,29.5
			H135.8z"/>
		<path class="st1" d="M171.1,113.1c6.6-7.5,15.3-13.4,25.5-16.8c30.4-9.9,63.1,6.8,73,37.2c9.9,30.4-6.8,63.1-37.2,73
			c-10.2,3.3-20.7,3.6-30.5,1.5L171.1,113.1z"/>
		<path class="st1" d="M158.6,154.3c9.2,4,17.5,10.4,23.8,19.1c18.8,25.9,13.1,62.1-12.8,80.9c-25.9,18.8-62.1,13.1-80.9-12.8
			c-6.3-8.7-9.9-18.6-10.8-28.6L158.6,154.3z"/>
		<path class="st1" d="M115.6,155.1c-0.9,10-4.5,19.9-10.8,28.6c-18.8,25.9-55,31.6-80.9,12.8c-25.9-18.8-31.6-55-12.8-80.9
			c6.3-8.7,14.6-15.1,23.8-19.1L115.6,155.1z"/>
		<path class="st1" d="M101.5,114.5c-9.8,2.2-20.3,1.9-30.5-1.5c-30.4-9.9-47.1-42.6-37.2-73C43.7,9.6,76.4-7,106.8,2.9
			c10.2,3.3,18.9,9.2,25.5,16.8L101.5,114.5z"/>
	</g>
	<g>
		<g>
			<g>
				<path class="st0" d="M623.1,102.3c0,21.4-12.7,31.1-24.5,31.1c-5.5,0-10.2-2-14.1-6c-6.9-7.1-9.1-18.2-8.9-25.6
					c-0.2-10.4,2.7-19.5,8-25c3.8-3.9,8.8-5.9,14.8-5.9C615.4,70.9,623.1,87.2,623.1,102.3 M623.1,23.4v47.7
					c-5.6-8.9-15-13.3-28-13.3c-11.5,0-21,4.5-27.6,12.9c-5.8,7.6-9.1,18.2-9.1,30c0,12.3,3.1,23.5,8.6,31.6
					c6.4,9.4,16.1,14.3,27.9,14.3c14.4,0,24.2-7,28.8-13.7v11.7h15.4V23.4H623.1z"/>
				<rect x="661.6" y="59.8" class="st0" width="16.1" height="84.8"/>
				<rect x="661.4" y="23.5" class="st0" width="16.6" height="16.6"/>
				<path class="st0" d="M757,128.7c-4.4,2.9-10.9,4.7-16.5,4.7c-19.2,0-27.8-15.7-27.8-31.3c0-20.5,13.5-31.3,26.8-31.3
					c5.2,0,11.1,1.3,16.7,3.6l0.4,0.1l1.4-13.5l-0.2-0.1c-4.7-1.9-12.8-3.3-18.9-3.3c-25.5,0-43.2,18.3-43.2,44.4
					c0,25.3,18.6,44.4,43.2,44.4c8.1,0,14.5-1.1,19.6-3.5l0.2-0.1l-1.2-14.6L757,128.7z"/>
				<path class="st0" d="M825.4,104.4v7.1c0,13.5-8.9,21.8-23.2,21.8c-7.4,0-15.4-5.1-15.4-13.4c0-14.3,20.2-15.9,28.9-15.9
					c1.6,0,3.3,0.1,4.9,0.2C822.3,104.4,823.9,104.4,825.4,104.4 M842.2,144.6l0-0.3c-0.4-3.3-0.7-8.7-0.7-16.5V92.9
					c0-24-10.8-35.1-34.1-35.1c-9.6,0-19,2.7-27.9,8l-0.2,0.1l0.9,14l0.4-0.4c6.2-5.3,15.5-8.5,24.3-8.5c14.5,0,20.4,6.2,20.5,21.4
					c-6-0.3-10.3-0.3-16.2-0.3c-14.6,0-39.4,5.9-39.4,28c0,17.1,11.1,26.5,31.2,26.5c15.1,0,23.2-8.7,26.1-12.7v10.7H842.2z"/>
				<path class="st0" d="M918.4,46.4c-8.4-3.3-13-4.8-21.6-4.8c-9.3,0-20.1,3.3-20.1,15.4c0,22.1,49.5,17,49.5,55
					c0,24.6-19,34.3-42.1,34.3c-8.1,0-16-2.3-23.6-4.8l1.6-15.4c5.6,2.3,15.5,5.6,23.9,5.6c9.4,0,22.6-5.3,22.6-18.8
					c0-25.8-49.5-18.7-49.5-54.5c0-20.5,16.2-31.4,37-31.4c7.6,0,16.7,1.3,24.6,4.1L918.4,46.4z"/>
				<path class="st0" d="M1000.3,99c0,22.2-7.8,34.4-24.1,34.4c-12.6-0.8-17.6-9.1-17.6-29.8V59.8h-16.1v50.3
					c0,23.8,11,36.5,31.8,36.5c12.2,0,21.7-5.9,26.4-15.1v13.1h15.6V59.8h-16.1V99z"/>
				<path class="st0" d="M1084,58.9c-3.2-0.6-5.5-1.1-10-1.1c-8.7,0-17.7,6-22,14.7V59.8h-15.1v84.8h16.1V106
					c0-20.7,8.9-34.1,22.7-34.1c3.3,0,6.1,0.5,8.5,1.5l0.4,0.2l1.6-14.2L1084,58.9z"/>
				<polygon class="st0" points="532,22.2 513.2,22.2 499.7,43.2 511.5,43.2 				"/>
				<path class="st0" d="M529.8,93.8h-43c1.3-11.1,7.8-22.9,22.3-22.9C519.4,70.9,529.7,78,529.8,93.8 M546.9,105.7
					c0-31.7-12.6-47.8-37.4-47.8c-11.7,0-21.7,4.2-28.9,12c-7.1,7.8-10.9,18.5-10.9,30.8c0,29.6,15.6,45.9,43.9,45.9
					c12.2,0,19-2.6,24.4-4.6c0.8-0.3,1.5-0.6,2.2-0.8l1.4-0.5l-1.2-15.9l-0.5,0.4c-3.6,3-15.3,8.4-25.7,8.4
					c-15.3,0-27.3-12.1-27.5-27.5h60.1V105.7z"/>
				<polygon class="st0" points="532,22.2 513.2,22.2 499.8,43.2 511.5,43.2 				"/>
				<path class="st0" d="M424.9,27.1l-22.1,58.1c-5.4,13.7-9.5,25.1-12.3,34.1c-2.7-8.4-9.5-26.9-12.2-33.7l-23-58.5h-29.3v117.5
					h19.3V78.9c0-13.3-0.3-23.6-1-30.7c1.4,4.2,3,8.6,4.8,13.2c3,7.8,32.1,83.1,32.1,83.1h17.9c0,0,27.2-70.8,29.3-76.3
					c2.1-5.6,4.1-11.4,6.1-17.2c0.6-1.8,1.2-3.5,1.7-5c0,0.2-0.1,5.6-0.1,9c-0.1,3.5-0.1,7.2-0.2,11.3l-0.2,78.3h19.2V27.1H424.9z"
					/>
			</g>
			<g>
				<polygon class="st0" points="325.9,182.6 325.9,217.5 347.4,217.5 347.4,213.7 330.6,213.7 330.6,201.8 344.2,201.8 
					344.2,198.1 330.6,198.1 330.6,186.5 347.4,186.5 347.4,182.6 				"/>
				<path class="st0" d="M359.3,204.9l-8.3-12h4.2c0.4,0,0.6,0.1,0.8,0.2c0.2,0.1,0.3,0.3,0.4,0.5l6,9.3c0.1-0.5,0.4-0.9,0.6-1.4
					l5.3-7.8c0.2-0.2,0.3-0.4,0.5-0.5c0.2-0.1,0.4-0.2,0.6-0.2h4l-8.3,11.8l8.6,12.9h-4.2c-0.4,0-0.6-0.1-0.8-0.3
					c-0.2-0.2-0.4-0.4-0.5-0.6l-6.2-9.7c-0.1,0.5-0.3,0.9-0.5,1.3l-5.8,8.4c-0.2,0.2-0.3,0.4-0.5,0.6c-0.2,0.2-0.4,0.3-0.8,0.3h-3.9
					L359.3,204.9z"/>
				<path class="st0" d="M393.4,197.2c-0.1,0.2-0.3,0.3-0.4,0.4c-0.1,0.1-0.3,0.1-0.6,0.1c-0.2,0-0.5-0.1-0.8-0.3
					c-0.3-0.2-0.6-0.4-1.1-0.7c-0.4-0.2-1-0.5-1.6-0.7c-0.6-0.2-1.4-0.3-2.3-0.3c-1.2,0-2.3,0.2-3.2,0.6c-0.9,0.4-1.7,1.1-2.3,1.9
					c-0.6,0.8-1.1,1.8-1.4,2.9c-0.3,1.2-0.5,2.4-0.5,3.9c0,1.5,0.2,2.8,0.5,4c0.3,1.2,0.8,2.1,1.4,2.9c0.6,0.8,1.4,1.4,2.3,1.8
					c0.9,0.4,1.9,0.6,3,0.6c1.1,0,1.9-0.1,2.6-0.4c0.7-0.2,1.3-0.5,1.7-0.8c0.5-0.3,0.8-0.6,1.1-0.8c0.3-0.3,0.6-0.4,0.9-0.4
					c0.4,0,0.7,0.1,0.8,0.4l1.2,1.6c-1.1,1.3-2.4,2.3-4,2.9c-1.6,0.6-3.3,0.9-5.1,0.9c-1.5,0-3-0.3-4.3-0.8
					c-1.3-0.6-2.5-1.4-3.5-2.5c-1-1.1-1.7-2.4-2.3-4c-0.6-1.6-0.8-3.4-0.8-5.4c0-1.8,0.3-3.5,0.8-5.1c0.5-1.6,1.3-2.9,2.2-4
					c1-1.1,2.2-2,3.6-2.6c1.4-0.6,3.1-1,5-1c1.7,0,3.3,0.3,4.6,0.8c1.3,0.6,2.5,1.4,3.5,2.4L393.4,197.2z"/>
				<path class="st0" d="M409.1,192.5c1.5,0,2.8,0.2,4.1,0.7c1.3,0.5,2.3,1.2,3.2,2.1c0.9,0.9,1.6,2.1,2.1,3.5
					c0.5,1.4,0.8,2.9,0.8,4.7c0,0.7-0.1,1.1-0.2,1.4c-0.1,0.2-0.4,0.3-0.8,0.3h-16.4c0,1.6,0.2,2.9,0.6,4.1c0.4,1.2,0.9,2.1,1.6,2.9
					c0.7,0.8,1.5,1.3,2.4,1.7c0.9,0.4,2,0.6,3.2,0.6c1.1,0,2-0.1,2.8-0.4c0.8-0.3,1.5-0.5,2-0.8c0.6-0.3,1-0.6,1.4-0.8
					c0.4-0.2,0.7-0.4,1-0.4c0.4,0,0.6,0.1,0.8,0.4l1.2,1.6c-0.5,0.7-1.2,1.2-1.9,1.7c-0.7,0.5-1.5,0.9-2.4,1.2
					c-0.9,0.3-1.7,0.5-2.6,0.7c-0.9,0.2-1.8,0.2-2.7,0.2c-1.7,0-3.3-0.3-4.7-0.9c-1.4-0.6-2.7-1.4-3.7-2.5c-1-1.1-1.9-2.5-2.4-4.1
					c-0.6-1.6-0.9-3.5-0.9-5.7c0-1.7,0.3-3.3,0.8-4.8c0.5-1.5,1.3-2.8,2.3-3.9c1-1.1,2.2-2,3.6-2.6
					C405.7,192.8,407.3,192.5,409.1,192.5 M409.2,195.7c-2.1,0-3.7,0.6-4.9,1.8c-1.2,1.2-2,2.9-2.2,5h13.4c0-1-0.1-1.9-0.4-2.8
					c-0.3-0.8-0.7-1.6-1.2-2.2c-0.5-0.6-1.2-1.1-2-1.4C411.1,195.8,410.2,195.7,409.2,195.7"/>
				<rect x="425.4" y="181.6" class="st0" width="4.3" height="35.9"/>
				<path class="st0" d="M447.1,192.5c1.5,0,2.8,0.2,4.1,0.7c1.3,0.5,2.3,1.2,3.2,2.1c0.9,0.9,1.6,2.1,2.1,3.5
					c0.5,1.4,0.8,2.9,0.8,4.7c0,0.7-0.1,1.1-0.2,1.4c-0.1,0.2-0.4,0.3-0.8,0.3h-16.4c0,1.6,0.2,2.9,0.6,4.1c0.4,1.2,0.9,2.1,1.6,2.9
					c0.7,0.8,1.5,1.3,2.4,1.7c0.9,0.4,2,0.6,3.2,0.6c1.1,0,2-0.1,2.8-0.4c0.8-0.3,1.5-0.5,2-0.8c0.6-0.3,1-0.6,1.4-0.8
					c0.4-0.2,0.7-0.4,1-0.4c0.4,0,0.6,0.1,0.8,0.4l1.2,1.6c-0.5,0.7-1.2,1.2-1.9,1.7c-0.7,0.5-1.6,0.9-2.4,1.2
					c-0.9,0.3-1.7,0.5-2.6,0.7c-0.9,0.2-1.8,0.2-2.7,0.2c-1.7,0-3.3-0.3-4.7-0.9c-1.4-0.6-2.7-1.4-3.7-2.5c-1-1.1-1.9-2.5-2.4-4.1
					c-0.6-1.6-0.9-3.5-0.9-5.7c0-1.7,0.3-3.3,0.8-4.8c0.5-1.5,1.3-2.8,2.3-3.9c1-1.1,2.2-2,3.6-2.6
					C443.7,192.8,445.3,192.5,447.1,192.5 M447.2,195.7c-2.1,0-3.7,0.6-4.9,1.8c-1.2,1.2-1.9,2.9-2.2,5h13.4c0-1-0.1-1.9-0.4-2.8
					c-0.3-0.8-0.7-1.6-1.2-2.2c-0.5-0.6-1.2-1.1-2-1.4C449.1,195.8,448.2,195.7,447.2,195.7"/>
				<path class="st0" d="M462.9,217.5v-24.7h2.6c0.6,0,1,0.3,1.2,0.9l0.3,2.7c1.1-1.2,2.3-2.1,3.6-2.9c1.3-0.7,2.9-1.1,4.6-1.1
					c1.3,0,2.5,0.2,3.6,0.7c1,0.4,1.9,1.1,2.6,1.9c0.7,0.8,1.2,1.8,1.6,3c0.4,1.2,0.5,2.4,0.5,3.8v15.7h-4.3v-15.7
					c0-1.9-0.4-3.3-1.3-4.3c-0.9-1-2.2-1.5-3.9-1.5c-1.3,0-2.5,0.3-3.6,0.9c-1.1,0.6-2.1,1.5-3.1,2.5v18.2H462.9z"/>
				<path class="st0" d="M506.8,197.2c-0.1,0.2-0.3,0.3-0.4,0.4c-0.1,0.1-0.3,0.1-0.6,0.1c-0.2,0-0.5-0.1-0.8-0.3
					c-0.3-0.2-0.6-0.4-1.1-0.7c-0.4-0.2-1-0.5-1.6-0.7c-0.6-0.2-1.4-0.3-2.3-0.3c-1.2,0-2.3,0.2-3.2,0.6c-0.9,0.4-1.7,1.1-2.3,1.9
					c-0.6,0.8-1.1,1.8-1.4,2.9c-0.3,1.2-0.5,2.4-0.5,3.9c0,1.5,0.2,2.8,0.5,4c0.3,1.2,0.8,2.1,1.4,2.9c0.6,0.8,1.4,1.4,2.3,1.8
					c0.9,0.4,1.9,0.6,3,0.6c1.1,0,1.9-0.1,2.6-0.4c0.7-0.2,1.3-0.5,1.7-0.8c0.5-0.3,0.8-0.6,1.1-0.8c0.3-0.3,0.6-0.4,0.9-0.4
					c0.4,0,0.7,0.1,0.8,0.4l1.2,1.6c-1.1,1.3-2.4,2.3-4,2.9c-1.6,0.6-3.3,0.9-5.1,0.9c-1.5,0-3-0.3-4.3-0.8
					c-1.3-0.6-2.5-1.4-3.4-2.5c-1-1.1-1.7-2.4-2.3-4c-0.6-1.6-0.8-3.4-0.8-5.4c0-1.8,0.3-3.5,0.8-5.1c0.5-1.6,1.3-2.9,2.2-4
					c1-1.1,2.2-2,3.6-2.6c1.4-0.6,3.1-1,5-1c1.7,0,3.3,0.3,4.6,0.8c1.3,0.6,2.5,1.4,3.5,2.4L506.8,197.2z"/>
				<path class="st0" d="M518.5,185.1c0,0.4-0.1,0.8-0.3,1.2c-0.2,0.4-0.4,0.7-0.7,1c-0.3,0.3-0.6,0.5-1,0.7
					c-0.4,0.2-0.8,0.2-1.2,0.2s-0.8-0.1-1.2-0.2c-0.4-0.2-0.7-0.4-1-0.7c-0.3-0.3-0.5-0.6-0.7-1c-0.2-0.4-0.2-0.8-0.2-1.2
					c0-0.4,0.1-0.8,0.2-1.2c0.2-0.4,0.4-0.7,0.7-1c0.3-0.3,0.6-0.5,1-0.7c0.4-0.2,0.8-0.2,1.2-0.2s0.8,0.1,1.2,0.2
					c0.4,0.2,0.7,0.4,1,0.7c0.3,0.3,0.5,0.6,0.7,1C518.5,184.3,518.5,184.7,518.5,185.1 M517.6,217.5h-4.3v-24.7h4.3V217.5z"/>
				<path class="st0" d="M543.3,217.5h-1.9c-0.4,0-0.8-0.1-1-0.2c-0.3-0.1-0.4-0.4-0.5-0.8l-0.5-2.3c-0.7,0.6-1.3,1.1-1.9,1.6
					c-0.6,0.5-1.3,0.9-1.9,1.2c-0.7,0.3-1.4,0.6-2.2,0.7c-0.8,0.2-1.6,0.2-2.6,0.2c-1,0-1.9-0.1-2.7-0.4c-0.8-0.3-1.6-0.7-2.2-1.2
					c-0.6-0.5-1.1-1.2-1.5-2c-0.4-0.8-0.5-1.8-0.5-2.9c0-1,0.3-1.9,0.8-2.8c0.5-0.9,1.4-1.7,2.6-2.4c1.2-0.7,2.8-1.3,4.7-1.7
					c1.9-0.4,4.3-0.7,7.1-0.7v-1.9c0-1.9-0.4-3.4-1.2-4.4c-0.8-1-2-1.5-3.6-1.5c-1.1,0-1.9,0.1-2.7,0.4c-0.7,0.3-1.3,0.6-1.9,0.9
					c-0.5,0.3-1,0.6-1.4,0.9c-0.4,0.3-0.8,0.4-1.1,0.4c-0.3,0-0.5-0.1-0.8-0.2c-0.2-0.2-0.4-0.3-0.5-0.6l-0.8-1.4
					c1.4-1.3,2.8-2.3,4.4-2.9c1.6-0.6,3.3-1,5.2-1c1.4,0,2.6,0.2,3.7,0.7c1.1,0.5,2,1.1,2.7,1.9c0.7,0.8,1.3,1.8,1.7,2.9
					c0.4,1.2,0.6,2.4,0.6,3.8V217.5z M532.1,214.9c0.8,0,1.5-0.1,2.1-0.2c0.6-0.2,1.2-0.4,1.8-0.7c0.6-0.3,1.1-0.6,1.6-1
					c0.5-0.4,1-0.9,1.5-1.4v-5.1c-2,0-3.7,0.1-5.1,0.4c-1.4,0.3-2.5,0.6-3.4,1c-0.9,0.4-1.5,0.9-1.9,1.4c-0.4,0.6-0.6,1.2-0.6,1.9
					c0,0.7,0.1,1.2,0.3,1.7c0.2,0.5,0.5,0.9,0.9,1.2c0.4,0.3,0.8,0.5,1.3,0.7C531,214.8,531.5,214.9,532.1,214.9"/>
				<path class="st0" d="M559.3,217.5v-24.7h2.6c0.6,0,1,0.3,1.2,0.9l0.3,2.5c0.9-1.1,1.9-2,3.1-2.8c1.1-0.7,2.4-1.1,3.9-1.1
					c1.7,0,3,0.5,4.1,1.4c1,0.9,1.8,2.2,2.2,3.8c0.3-0.9,0.8-1.7,1.4-2.3c0.6-0.6,1.2-1.2,1.9-1.6c0.7-0.4,1.4-0.7,2.2-0.9
					c0.8-0.2,1.6-0.3,2.4-0.3c1.3,0,2.5,0.2,3.5,0.6c1,0.4,1.9,1,2.6,1.8c0.7,0.8,1.2,1.8,1.6,2.9c0.4,1.2,0.6,2.5,0.6,4v15.7h-4.3
					v-15.7c0-1.9-0.4-3.4-1.3-4.4c-0.8-1-2.1-1.5-3.7-1.5c-0.7,0-1.4,0.1-2,0.4c-0.6,0.3-1.2,0.6-1.7,1.1c-0.5,0.5-0.9,1.1-1.2,1.8
					c-0.3,0.7-0.4,1.6-0.4,2.6v15.7h-4.3v-15.7c0-2-0.4-3.5-1.2-4.4c-0.8-1-2-1.5-3.5-1.5c-1.1,0-2.1,0.3-3,0.9
					c-0.9,0.6-1.8,1.4-2.5,2.4v18.4H559.3z"/>
				<path class="st0" d="M609.1,192.5c1.5,0,2.8,0.2,4.1,0.7c1.3,0.5,2.3,1.2,3.2,2.1c0.9,0.9,1.6,2.1,2.1,3.5
					c0.5,1.4,0.8,2.9,0.8,4.7c0,0.7-0.1,1.1-0.2,1.4c-0.1,0.2-0.4,0.3-0.8,0.3h-16.4c0,1.6,0.2,2.9,0.6,4.1c0.4,1.2,0.9,2.1,1.6,2.9
					c0.7,0.8,1.5,1.3,2.4,1.7c0.9,0.4,2,0.6,3.2,0.6c1.1,0,2-0.1,2.8-0.4c0.8-0.3,1.5-0.5,2-0.8c0.6-0.3,1-0.6,1.4-0.8
					c0.4-0.2,0.7-0.4,1-0.4c0.4,0,0.6,0.1,0.8,0.4l1.2,1.6c-0.5,0.6-1.2,1.2-1.9,1.7c-0.7,0.5-1.5,0.9-2.4,1.2
					c-0.9,0.3-1.7,0.5-2.6,0.7c-0.9,0.2-1.8,0.2-2.7,0.2c-1.7,0-3.3-0.3-4.7-0.9c-1.4-0.6-2.7-1.4-3.7-2.5c-1-1.1-1.9-2.5-2.4-4.1
					c-0.6-1.6-0.9-3.5-0.9-5.7c0-1.7,0.3-3.3,0.8-4.8c0.5-1.5,1.3-2.8,2.3-3.9c1-1.1,2.2-2,3.6-2.6
					C605.7,192.8,607.3,192.5,609.1,192.5 M609.2,195.7c-2.1,0-3.7,0.6-4.9,1.8c-1.2,1.2-2,2.9-2.2,5h13.4c0-1-0.1-1.9-0.4-2.8
					c-0.3-0.8-0.7-1.6-1.2-2.2c-0.5-0.6-1.2-1.1-2-1.4C611.1,195.8,610.2,195.7,609.2,195.7 M616.3,182.2l-5.7,6.3
					c-0.2,0.2-0.5,0.4-0.7,0.5c-0.2,0.1-0.5,0.2-0.8,0.2h-2.6l3.6-5.9c0.2-0.4,0.5-0.6,0.7-0.8c0.3-0.2,0.7-0.3,1.2-0.3H616.3z"/>
				<path class="st0" d="M642.2,217.5c-0.6,0-1-0.3-1.2-0.9l-0.4-3c-1.1,1.3-2.3,2.3-3.6,3.1c-1.4,0.8-2.9,1.2-4.7,1.2
					c-1.4,0-2.7-0.3-3.8-0.8c-1.2-0.5-2.1-1.3-2.9-2.4c-0.8-1.1-1.4-2.4-1.9-3.9c-0.4-1.6-0.7-3.4-0.7-5.4c0-1.8,0.2-3.5,0.7-5.1
					c0.5-1.6,1.2-2.9,2.1-4.1c0.9-1.2,2-2.1,3.4-2.7c1.3-0.7,2.8-1,4.5-1c1.5,0,2.8,0.3,3.9,0.8c1.1,0.5,2,1.2,2.9,2.2v-13.7h4.3
					v35.9H642.2z M633.8,214.4c1.4,0,2.7-0.3,3.7-1c1.1-0.6,2-1.6,2.9-2.8v-11.9c-0.8-1.1-1.7-1.8-2.6-2.2c-1-0.4-2-0.6-3.2-0.6
					c-2.3,0-4.1,0.8-5.3,2.5c-1.2,1.6-1.9,4-1.9,7c0,1.6,0.1,3,0.4,4.1c0.3,1.1,0.7,2.1,1.2,2.8c0.5,0.7,1.2,1.3,2,1.6
					C631.9,214.2,632.8,214.4,633.8,214.4"/>
				<path class="st0" d="M657.9,185.1c0,0.4-0.1,0.8-0.3,1.2c-0.2,0.4-0.4,0.7-0.7,1c-0.3,0.3-0.6,0.5-1,0.7
					c-0.4,0.2-0.8,0.2-1.2,0.2c-0.4,0-0.8-0.1-1.2-0.2c-0.4-0.2-0.7-0.4-1-0.7c-0.3-0.3-0.5-0.6-0.7-1c-0.2-0.4-0.2-0.8-0.2-1.2
					c0-0.4,0.1-0.8,0.2-1.2c0.2-0.4,0.4-0.7,0.7-1c0.3-0.3,0.6-0.5,1-0.7c0.4-0.2,0.8-0.2,1.2-0.2c0.4,0,0.8,0.1,1.2,0.2
					c0.4,0.2,0.7,0.4,1,0.7c0.3,0.3,0.5,0.6,0.7,1C657.8,184.3,657.9,184.7,657.9,185.1 M656.9,217.5h-4.3v-24.7h4.3V217.5z"/>
				<path class="st0" d="M681.4,197.2c-0.1,0.2-0.3,0.3-0.4,0.4c-0.1,0.1-0.3,0.1-0.6,0.1c-0.2,0-0.5-0.1-0.8-0.3
					c-0.3-0.2-0.6-0.4-1.1-0.7c-0.4-0.2-1-0.5-1.6-0.7c-0.6-0.2-1.4-0.3-2.3-0.3c-1.2,0-2.3,0.2-3.2,0.6c-0.9,0.4-1.7,1.1-2.3,1.9
					c-0.6,0.8-1.1,1.8-1.4,2.9c-0.3,1.2-0.5,2.4-0.5,3.9c0,1.5,0.2,2.8,0.5,4c0.3,1.2,0.8,2.1,1.4,2.9c0.6,0.8,1.4,1.4,2.3,1.8
					c0.9,0.4,1.9,0.6,3,0.6c1.1,0,1.9-0.1,2.6-0.4c0.7-0.2,1.3-0.5,1.7-0.8c0.5-0.3,0.8-0.6,1.1-0.8c0.3-0.3,0.6-0.4,0.9-0.4
					c0.4,0,0.7,0.1,0.8,0.4l1.2,1.6c-1.1,1.3-2.4,2.3-4,2.9c-1.6,0.6-3.3,0.9-5.1,0.9c-1.5,0-3-0.3-4.3-0.8
					c-1.3-0.6-2.5-1.4-3.4-2.5c-1-1.1-1.7-2.4-2.3-4c-0.6-1.6-0.8-3.4-0.8-5.4c0-1.8,0.3-3.5,0.8-5.1c0.5-1.6,1.3-2.9,2.2-4
					c1-1.1,2.2-2,3.6-2.6c1.4-0.6,3.1-1,5-1c1.7,0,3.3,0.3,4.6,0.8c1.3,0.6,2.5,1.4,3.5,2.4L681.4,197.2z"/>
				<path class="st0" d="M705.5,217.5h-1.9c-0.4,0-0.8-0.1-1-0.2c-0.3-0.1-0.4-0.4-0.5-0.8l-0.5-2.3c-0.7,0.6-1.3,1.1-1.9,1.6
					c-0.6,0.5-1.3,0.9-1.9,1.2c-0.7,0.3-1.4,0.6-2.2,0.7c-0.8,0.2-1.6,0.2-2.6,0.2c-1,0-1.9-0.1-2.7-0.4c-0.8-0.3-1.6-0.7-2.2-1.2
					c-0.6-0.5-1.1-1.2-1.5-2c-0.4-0.8-0.5-1.8-0.5-2.9c0-1,0.3-1.9,0.8-2.8c0.5-0.9,1.4-1.7,2.6-2.4c1.2-0.7,2.8-1.3,4.7-1.7
					c1.9-0.4,4.3-0.7,7.1-0.7v-1.9c0-1.9-0.4-3.4-1.2-4.4c-0.8-1-2-1.5-3.6-1.5c-1.1,0-1.9,0.1-2.7,0.4c-0.7,0.3-1.3,0.6-1.9,0.9
					c-0.5,0.3-1,0.6-1.4,0.9c-0.4,0.3-0.8,0.4-1.1,0.4c-0.3,0-0.5-0.1-0.8-0.2c-0.2-0.2-0.4-0.3-0.5-0.6l-0.8-1.4
					c1.4-1.3,2.8-2.3,4.4-2.9c1.6-0.6,3.3-1,5.2-1c1.4,0,2.6,0.2,3.7,0.7c1.1,0.5,2,1.1,2.7,1.9c0.7,0.8,1.3,1.8,1.7,2.9
					c0.4,1.2,0.6,2.4,0.6,3.8V217.5z M694.2,214.9c0.8,0,1.5-0.1,2.1-0.2c0.6-0.2,1.2-0.4,1.8-0.7c0.6-0.3,1.1-0.6,1.6-1
					c0.5-0.4,1-0.9,1.5-1.4v-5.1c-2,0-3.7,0.1-5.1,0.4c-1.4,0.3-2.5,0.6-3.4,1c-0.9,0.4-1.5,0.9-1.9,1.4c-0.4,0.6-0.6,1.2-0.6,1.9
					c0,0.7,0.1,1.2,0.3,1.7c0.2,0.5,0.5,0.9,0.9,1.2c0.4,0.3,0.8,0.5,1.3,0.7C693.1,214.8,693.6,214.9,694.2,214.9"/>
				<path class="st0" d="M710.8,214.5c0-0.4,0.1-0.7,0.2-1.1c0.1-0.3,0.3-0.6,0.6-0.9c0.3-0.3,0.6-0.4,0.9-0.6
					c0.4-0.1,0.7-0.2,1.2-0.2c0.5,0,0.9,0.1,1.3,0.3c0.4,0.2,0.7,0.4,1,0.7c0.3,0.3,0.4,0.7,0.6,1.1c0.1,0.4,0.2,0.9,0.2,1.4
					c0,0.7-0.1,1.5-0.3,2.3c-0.2,0.8-0.5,1.6-0.9,2.3c-0.4,0.8-0.9,1.5-1.5,2.3c-0.6,0.7-1.2,1.4-2,2l-0.7-0.7
					c-0.2-0.2-0.3-0.4-0.3-0.7c0-0.2,0.1-0.4,0.3-0.7c0.2-0.2,0.4-0.4,0.6-0.7c0.2-0.3,0.5-0.6,0.8-1c0.3-0.4,0.5-0.8,0.7-1.3
					c0.2-0.5,0.4-1,0.5-1.5h-0.3c-0.4,0-0.8-0.1-1.1-0.2c-0.3-0.1-0.6-0.4-0.9-0.6c-0.3-0.3-0.4-0.6-0.6-1
					C710.8,215.4,710.8,215,710.8,214.5"/>
				<path class="st0" d="M748.6,197.2c-0.1,0.2-0.3,0.3-0.4,0.4c-0.1,0.1-0.3,0.1-0.6,0.1c-0.2,0-0.5-0.1-0.8-0.3
					c-0.3-0.2-0.6-0.4-1.1-0.7c-0.4-0.2-1-0.5-1.6-0.7c-0.6-0.2-1.4-0.3-2.3-0.3c-1.2,0-2.3,0.2-3.2,0.6c-0.9,0.4-1.7,1.1-2.3,1.9
					c-0.6,0.8-1.1,1.8-1.4,2.9c-0.3,1.2-0.5,2.4-0.5,3.9c0,1.5,0.2,2.8,0.5,4c0.3,1.2,0.8,2.1,1.4,2.9c0.6,0.8,1.4,1.4,2.3,1.8
					c0.9,0.4,1.9,0.6,3,0.6c1.1,0,1.9-0.1,2.6-0.4c0.7-0.2,1.3-0.5,1.7-0.8c0.5-0.3,0.8-0.6,1.1-0.8c0.3-0.3,0.6-0.4,0.9-0.4
					c0.4,0,0.6,0.1,0.8,0.4l1.2,1.6c-1.1,1.3-2.4,2.3-4,2.9c-1.6,0.6-3.3,0.9-5.1,0.9c-1.5,0-3-0.3-4.3-0.8
					c-1.3-0.6-2.5-1.4-3.4-2.5c-1-1.1-1.7-2.4-2.3-4c-0.6-1.6-0.8-3.4-0.8-5.4c0-1.8,0.3-3.5,0.8-5.1c0.5-1.6,1.3-2.9,2.2-4
					c1-1.1,2.2-2,3.6-2.6c1.4-0.6,3.1-1,5-1c1.7,0,3.3,0.3,4.6,0.8c1.3,0.6,2.5,1.4,3.5,2.4L748.6,197.2z"/>
				<path class="st0" d="M772.6,217.5h-1.9c-0.4,0-0.8-0.1-1-0.2c-0.3-0.1-0.4-0.4-0.5-0.8l-0.5-2.3c-0.7,0.6-1.3,1.1-1.9,1.6
					c-0.6,0.5-1.3,0.9-1.9,1.2c-0.7,0.3-1.4,0.6-2.2,0.7c-0.8,0.2-1.6,0.2-2.6,0.2c-1,0-1.9-0.1-2.7-0.4c-0.8-0.3-1.6-0.7-2.2-1.2
					c-0.6-0.5-1.1-1.2-1.5-2c-0.4-0.8-0.5-1.8-0.5-2.9c0-1,0.3-1.9,0.8-2.8c0.5-0.9,1.4-1.7,2.6-2.4c1.2-0.7,2.8-1.3,4.7-1.7
					c1.9-0.4,4.3-0.7,7.1-0.7v-1.9c0-1.9-0.4-3.4-1.2-4.4c-0.8-1-2-1.5-3.6-1.5c-1.1,0-1.9,0.1-2.7,0.4c-0.7,0.3-1.3,0.6-1.9,0.9
					c-0.5,0.3-1,0.6-1.4,0.9c-0.4,0.3-0.8,0.4-1.1,0.4c-0.3,0-0.5-0.1-0.8-0.2c-0.2-0.2-0.4-0.3-0.5-0.6l-0.8-1.4
					c1.4-1.3,2.8-2.3,4.4-2.9c1.6-0.6,3.3-1,5.2-1c1.4,0,2.6,0.2,3.7,0.7c1.1,0.5,2,1.1,2.7,1.9c0.7,0.8,1.3,1.8,1.7,2.9
					c0.4,1.2,0.6,2.4,0.6,3.8V217.5z M761.4,214.9c0.8,0,1.5-0.1,2.1-0.2c0.6-0.2,1.2-0.4,1.8-0.7c0.6-0.3,1.1-0.6,1.6-1
					c0.5-0.4,1-0.9,1.5-1.4v-5.1c-2,0-3.7,0.1-5.1,0.4c-1.4,0.3-2.5,0.6-3.4,1c-0.9,0.4-1.5,0.9-1.9,1.4c-0.4,0.6-0.6,1.2-0.6,1.9
					c0,0.7,0.1,1.2,0.3,1.7c0.2,0.5,0.5,0.9,0.9,1.2c0.4,0.3,0.8,0.5,1.3,0.7C760.3,214.8,760.8,214.9,761.4,214.9"/>
				<rect x="779.7" y="181.6" class="st0" width="4.3" height="35.9"/>
				<path class="st0" d="M797.5,185.1c0,0.4-0.1,0.8-0.3,1.2c-0.2,0.4-0.4,0.7-0.7,1c-0.3,0.3-0.6,0.5-1,0.7
					c-0.4,0.2-0.8,0.2-1.2,0.2c-0.4,0-0.8-0.1-1.2-0.2c-0.4-0.2-0.7-0.4-1-0.7c-0.3-0.3-0.5-0.6-0.7-1c-0.2-0.4-0.2-0.8-0.2-1.2
					c0-0.4,0.1-0.8,0.2-1.2c0.2-0.4,0.4-0.7,0.7-1c0.3-0.3,0.6-0.5,1-0.7c0.4-0.2,0.8-0.2,1.2-0.2c0.4,0,0.8,0.1,1.2,0.2
					c0.4,0.2,0.7,0.4,1,0.7c0.3,0.3,0.5,0.6,0.7,1C797.4,184.3,797.5,184.7,797.5,185.1 M796.5,217.5h-4.3v-24.7h4.3V217.5z"/>
				<path class="st0" d="M821.5,217.5c-0.6,0-1-0.3-1.2-0.9l-0.4-3c-1.1,1.3-2.3,2.3-3.6,3.1c-1.4,0.8-2.9,1.2-4.7,1.2
					c-1.4,0-2.7-0.3-3.8-0.8c-1.2-0.5-2.1-1.3-2.9-2.4c-0.8-1.1-1.4-2.4-1.9-3.9c-0.4-1.6-0.7-3.4-0.7-5.4c0-1.8,0.2-3.5,0.7-5.1
					c0.5-1.6,1.2-2.9,2.1-4.1c0.9-1.2,2-2.1,3.4-2.7c1.3-0.7,2.8-1,4.5-1c1.5,0,2.8,0.3,3.9,0.8c1.1,0.5,2,1.2,2.9,2.2v-13.7h4.3
					v35.9H821.5z M813.1,214.4c1.4,0,2.7-0.3,3.7-1c1.1-0.6,2-1.6,2.9-2.8v-11.9c-0.8-1.1-1.7-1.8-2.6-2.2c-1-0.4-2-0.6-3.2-0.6
					c-2.3,0-4.1,0.8-5.3,2.5c-1.2,1.6-1.9,4-1.9,7c0,1.6,0.1,3,0.4,4.1c0.3,1.1,0.7,2.1,1.2,2.8c0.5,0.7,1.2,1.3,2,1.6
					C811.2,214.2,812.1,214.4,813.1,214.4"/>
				<path class="st0" d="M841.2,192.5c1.5,0,2.8,0.2,4.1,0.7c1.3,0.5,2.3,1.2,3.2,2.1c0.9,0.9,1.6,2.1,2.1,3.5
					c0.5,1.4,0.8,2.9,0.8,4.7c0,0.7-0.1,1.1-0.2,1.4c-0.1,0.2-0.4,0.3-0.8,0.3h-16.4c0,1.6,0.2,2.9,0.6,4.1c0.4,1.2,0.9,2.1,1.6,2.9
					c0.7,0.8,1.5,1.3,2.4,1.7c0.9,0.4,2,0.6,3.2,0.6c1.1,0,2-0.1,2.8-0.4c0.8-0.3,1.5-0.5,2-0.8c0.6-0.3,1-0.6,1.4-0.8
					c0.4-0.2,0.7-0.4,1-0.4c0.4,0,0.6,0.1,0.8,0.4l1.2,1.6c-0.5,0.7-1.2,1.2-1.9,1.7c-0.7,0.5-1.5,0.9-2.4,1.2
					c-0.9,0.3-1.7,0.5-2.6,0.7c-0.9,0.2-1.8,0.2-2.7,0.2c-1.7,0-3.3-0.3-4.7-0.9c-1.4-0.6-2.7-1.4-3.7-2.5c-1-1.1-1.9-2.5-2.4-4.1
					c-0.6-1.6-0.9-3.5-0.9-5.7c0-1.7,0.3-3.3,0.8-4.8c0.5-1.5,1.3-2.8,2.3-3.9c1-1.1,2.2-2,3.6-2.6
					C837.8,192.8,839.4,192.5,841.2,192.5 M841.3,195.7c-2.1,0-3.7,0.6-4.9,1.8c-1.2,1.2-1.9,2.9-2.2,5h13.4c0-1-0.1-1.9-0.4-2.8
					c-0.3-0.8-0.7-1.6-1.2-2.2c-0.5-0.6-1.2-1.1-2-1.4C843.1,195.8,842.3,195.7,841.3,195.7"/>
				<path class="st0" d="M874.2,194.7c0,0.3-0.1,0.6-0.2,0.9c-0.1,0.3-0.3,0.5-0.4,0.8l-13.4,17.8h13.5v3.4h-18.6v-1.8
					c0-0.2,0.1-0.5,0.2-0.7c0.1-0.3,0.3-0.6,0.4-0.8l13.4-17.9h-13.3v-3.4h18.3V194.7z"/>
				<path class="st0" d="M888.9,217.5v-35.9h4.3v14.5c1.1-1.1,2.2-2,3.5-2.7c1.3-0.7,2.8-1,4.4-1c1.3,0,2.5,0.2,3.6,0.7
					c1,0.4,1.9,1.1,2.6,1.9c0.7,0.8,1.2,1.8,1.6,3c0.4,1.2,0.5,2.4,0.5,3.8v15.7h-4.3v-15.7c0-1.9-0.4-3.3-1.3-4.3
					c-0.9-1-2.2-1.5-3.9-1.5c-1.3,0-2.5,0.3-3.6,0.9c-1.1,0.6-2.1,1.5-3.1,2.5v18.2H888.9z"/>
				<path class="st0" d="M919.7,192.9v15.7c0,1.9,0.4,3.3,1.3,4.3c0.9,1,2.2,1.5,3.9,1.5c1.3,0,2.5-0.3,3.6-0.9
					c1.1-0.6,2.1-1.4,3.1-2.5v-18.2h4.3v24.7h-2.6c-0.6,0-1-0.3-1.2-0.9l-0.3-2.7c-1.1,1.2-2.3,2.1-3.6,2.9
					c-1.3,0.7-2.9,1.1-4.6,1.1c-1.3,0-2.5-0.2-3.6-0.7c-1-0.4-1.9-1.1-2.6-1.9c-0.7-0.8-1.2-1.8-1.6-2.9c-0.4-1.2-0.5-2.4-0.5-3.8
					v-15.7H919.7z"/>
				<path class="st0" d="M943,217.5v-24.7h2.6c0.6,0,1,0.3,1.2,0.9l0.3,2.5c0.9-1.1,1.9-2,3.1-2.8c1.1-0.7,2.4-1.1,3.9-1.1
					c1.7,0,3,0.5,4.1,1.4c1,0.9,1.8,2.2,2.2,3.8c0.3-0.9,0.8-1.7,1.4-2.3c0.6-0.6,1.2-1.2,1.9-1.6c0.7-0.4,1.4-0.7,2.2-0.9
					c0.8-0.2,1.6-0.3,2.4-0.3c1.3,0,2.5,0.2,3.5,0.6c1,0.4,1.9,1,2.6,1.8c0.7,0.8,1.2,1.8,1.6,2.9c0.4,1.2,0.6,2.5,0.6,4v15.7h-4.3
					v-15.7c0-1.9-0.4-3.4-1.3-4.4c-0.8-1-2.1-1.5-3.7-1.5c-0.7,0-1.4,0.1-2,0.4c-0.6,0.3-1.2,0.6-1.7,1.1c-0.5,0.5-0.9,1.1-1.2,1.8
					c-0.3,0.7-0.4,1.6-0.4,2.6v15.7h-4.3v-15.7c0-2-0.4-3.5-1.2-4.4c-0.8-1-2-1.5-3.5-1.5c-1.1,0-2.1,0.3-3,0.9
					c-0.9,0.6-1.8,1.4-2.5,2.4v18.4H943z"/>
				<path class="st0" d="M1001.2,217.5h-1.9c-0.4,0-0.8-0.1-1-0.2c-0.3-0.1-0.4-0.4-0.5-0.8l-0.5-2.3c-0.7,0.6-1.3,1.1-1.9,1.6
					c-0.6,0.5-1.3,0.9-1.9,1.2c-0.7,0.3-1.4,0.6-2.2,0.7c-0.8,0.2-1.6,0.2-2.6,0.2c-1,0-1.9-0.1-2.7-0.4c-0.8-0.3-1.6-0.7-2.2-1.2
					c-0.6-0.5-1.1-1.2-1.5-2c-0.4-0.8-0.5-1.8-0.5-2.9c0-1,0.3-1.9,0.8-2.8c0.5-0.9,1.4-1.7,2.6-2.4c1.2-0.7,2.8-1.3,4.7-1.7
					c1.9-0.4,4.3-0.7,7.1-0.7v-1.9c0-1.9-0.4-3.4-1.2-4.4c-0.8-1-2-1.5-3.6-1.5c-1.1,0-1.9,0.1-2.7,0.4c-0.7,0.3-1.3,0.6-1.9,0.9
					c-0.5,0.3-1,0.6-1.4,0.9c-0.4,0.3-0.8,0.4-1.1,0.4c-0.3,0-0.5-0.1-0.8-0.2c-0.2-0.2-0.4-0.3-0.5-0.6l-0.8-1.4
					c1.4-1.3,2.8-2.3,4.4-2.9c1.6-0.6,3.3-1,5.2-1c1.4,0,2.6,0.2,3.7,0.7c1.1,0.5,2,1.1,2.7,1.9c0.7,0.8,1.3,1.8,1.7,2.9
					c0.4,1.2,0.6,2.4,0.6,3.8V217.5z M989.9,214.9c0.8,0,1.5-0.1,2.1-0.2c0.6-0.2,1.2-0.4,1.8-0.7c0.6-0.3,1.1-0.6,1.6-1
					c0.5-0.4,1-0.9,1.5-1.4v-5.1c-2,0-3.7,0.1-5.1,0.4c-1.4,0.3-2.5,0.6-3.4,1c-0.9,0.4-1.5,0.9-1.9,1.4c-0.4,0.6-0.6,1.2-0.6,1.9
					c0,0.7,0.1,1.2,0.3,1.7c0.2,0.5,0.5,0.9,0.9,1.2c0.4,0.3,0.8,0.5,1.3,0.7C988.8,214.8,989.3,214.9,989.9,214.9"/>
				<path class="st0" d="M1007.7,217.5v-24.7h2.6c0.6,0,1,0.3,1.2,0.9l0.3,2.7c1.1-1.2,2.3-2.1,3.6-2.9c1.3-0.7,2.9-1.1,4.6-1.1
					c1.3,0,2.5,0.2,3.6,0.7c1,0.4,1.9,1.1,2.6,1.9c0.7,0.8,1.2,1.8,1.6,3c0.4,1.2,0.5,2.4,0.5,3.8v15.7h-4.3v-15.7
					c0-1.9-0.4-3.3-1.3-4.3c-0.9-1-2.2-1.5-3.9-1.5c-1.3,0-2.5,0.3-3.6,0.9c-1.1,0.6-2.1,1.5-3.1,2.5v18.2H1007.7z"/>
				<path class="st0" d="M1053,217.5h-1.9c-0.4,0-0.8-0.1-1-0.2c-0.3-0.1-0.4-0.4-0.5-0.8l-0.5-2.3c-0.7,0.6-1.3,1.1-1.9,1.6
					c-0.6,0.5-1.3,0.9-1.9,1.2c-0.7,0.3-1.4,0.6-2.2,0.7c-0.8,0.2-1.6,0.2-2.6,0.2c-1,0-1.9-0.1-2.7-0.4c-0.8-0.3-1.6-0.7-2.2-1.2
					c-0.6-0.5-1.1-1.2-1.5-2c-0.4-0.8-0.5-1.8-0.5-2.9c0-1,0.3-1.9,0.8-2.8c0.5-0.9,1.4-1.7,2.6-2.4c1.2-0.7,2.8-1.3,4.7-1.7
					c1.9-0.4,4.3-0.7,7.1-0.7v-1.9c0-1.9-0.4-3.4-1.2-4.4c-0.8-1-2-1.5-3.6-1.5c-1.1,0-1.9,0.1-2.7,0.4c-0.7,0.3-1.3,0.6-1.9,0.9
					c-0.5,0.3-1,0.6-1.4,0.9c-0.4,0.3-0.8,0.4-1.1,0.4c-0.3,0-0.5-0.1-0.8-0.2c-0.2-0.2-0.4-0.3-0.5-0.6l-0.8-1.4
					c1.4-1.3,2.8-2.3,4.4-2.9c1.6-0.6,3.3-1,5.2-1c1.4,0,2.6,0.2,3.7,0.7c1.1,0.5,2,1.1,2.7,1.9c0.7,0.8,1.3,1.8,1.7,2.9
					c0.4,1.2,0.6,2.4,0.6,3.8V217.5z M1041.7,214.9c0.8,0,1.5-0.1,2.1-0.2c0.6-0.2,1.2-0.4,1.8-0.7c0.6-0.3,1.1-0.6,1.6-1
					c0.5-0.4,1-0.9,1.5-1.4v-5.1c-2,0-3.7,0.1-5.1,0.4c-1.4,0.3-2.5,0.6-3.4,1c-0.9,0.4-1.5,0.9-1.9,1.4c-0.4,0.6-0.6,1.2-0.6,1.9
					c0,0.7,0.1,1.2,0.3,1.7c0.2,0.5,0.5,0.9,0.9,1.2c0.4,0.3,0.8,0.5,1.3,0.7C1040.6,214.8,1041.1,214.9,1041.7,214.9"/>
			</g>
		</g>
		<g>
			<g>
				<path class="st0" d="M1124.7,41.3c4.7,0,8.8,1.8,12.2,5.3c3.4,3.5,5.2,7.7,5.2,12.4c0,5-1.7,9.2-5.2,12.7
					c-3.4,3.5-7.6,5.2-12.5,5.2c-5,0-9.2-1.8-12.7-5.3c-3.5-3.5-5.2-7.8-5.2-12.8c0-4.9,1.8-9.1,5.3-12.5
					C1115.3,43,1119.6,41.3,1124.7,41.3z M1124.1,44.2c-4,0-7.4,1.5-10.3,4.4c-2.9,2.9-4.4,6.4-4.4,10.4c0,4.1,1.4,7.6,4.4,10.6
					c2.9,2.9,6.4,4.4,10.5,4.4c4.1,0,7.6-1.5,10.5-4.4c2.9-2.9,4.4-6.5,4.4-10.7c0-4-1.5-7.5-4.4-10.4
					C1131.9,45.7,1128.3,44.2,1124.1,44.2z M1117.8,68.8V48.4h5.4c5.4,0,8.1,1.9,8.1,5.6c0,2.6-1.3,4.2-3.9,4.7v0.2
					c1,0.3,1.8,1.2,2.4,2.5l3.5,7.5h-4.6l-2.7-6.3c-0.4-0.9-0.9-1.6-1.4-1.9c-0.5-0.3-1.4-0.5-2.5-0.5h-0.4v8.7H1117.8z
					 M1121.6,51.7v5.1h0.8c3.2,0,4.9-0.8,4.9-2.5c0-1-0.4-1.7-1.2-2c-0.8-0.3-2-0.5-3.7-0.5H1121.6z"/>
			</g>
		</g>
	</g>
</g>
</svg>
